<?xml version="1.0" encoding="UTF-8" standalone="no"?>
<!-- Created with Inkscape (http://www.inkscape.org/) -->

<svg
   xmlns:dc="http://purl.org/dc/elements/1.1/"
   xmlns:cc="http://creativecommons.org/ns#"
   xmlns:rdf="http://www.w3.org/1999/02/22-rdf-syntax-ns#"
   xmlns:svg="http://www.w3.org/2000/svg"
   xmlns="http://www.w3.org/2000/svg"
   xmlns:sodipodi="http://sodipodi.sourceforge.net/DTD/sodipodi-0.dtd"
   xmlns:inkscape="http://www.inkscape.org/namespaces/inkscape"
   id="svg2"
   version="1.1"
   inkscape:version="0.48.3.1 r9886"
   width="89.878563"
   height="94.878563"
   sodipodi:docname="bareos_logo.png">
  <metadata
     id="metadata8">
    <rdf:RDF>
      <cc:Work
         rdf:about="">
        <dc:format>image/svg+xml</dc:format>
        <dc:type
           rdf:resource="http://purl.org/dc/dcmitype/StillImage" />
        <dc:title></dc:title>
      </cc:Work>
    </rdf:RDF>
  </metadata>
  <defs
     id="defs6" />
  <sodipodi:namedview
     pagecolor="#ffffff"
     bordercolor="#666666"
     borderopacity="1"
     objecttolerance="10"
     gridtolerance="10"
     guidetolerance="10"
     inkscape:pageopacity="0"
     inkscape:pageshadow="2"
     inkscape:window-width="1920"
     inkscape:window-height="1025"
     id="namedview4"
     showgrid="false"
     fit-margin-top="10"
     fit-margin-left="5"
     fit-margin-right="5"
     fit-margin-bottom="5"
     inkscape:zoom="6.675088"
     inkscape:cx="24.686089"
     inkscape:cy="53.862353"
     inkscape:window-x="-2"
     inkscape:window-y="-3"
     inkscape:window-maximized="1"
     inkscape:current-layer="svg2" />
  <path
     style="fill:#0073bc"
     d="m 44.766509,89.87856 c -0.315918,0 -0.620352,-0.04594 -0.676518,-0.102121 -0.0562,-0.05613 -1.286438,-0.460767 -2.733933,-0.899091 -1.447505,-0.438324 -3.365395,-1.067109 -4.261992,-1.397294 -0.896597,-0.330192 -2.684692,-0.990413 -3.973554,-1.467178 -1.288853,-0.476764 -2.847708,-1.095078 -3.46412,-1.37403 C 29.03998,84.359885 27.681326,83.776042 26.63715,83.341405 25.592973,82.906777 23.254692,81.782996 21.440969,80.844127 19.627242,79.905254 17.180462,78.525215 16.00368,77.777374 14.826897,77.029533 13.176345,75.876662 12.335788,75.215436 11.495226,74.554211 10.13368,73.34191 9.3101261,72.521435 8.4865729,71.700962 7.3586019,70.296086 6.803523,69.399489 6.2484452,68.502892 5.6882517,67.3796 5.5586527,66.903284 5.4290535,66.426966 5.2503376,66.037255 5.1615102,66.037255 5.0726794,66.037255 5,53.428871 5,38.018627 L 5,10 l 39.939281,0 39.939283,0 0,27.88484 c 0,27.103095 -0.01105,27.917175 -0.396821,29.038233 -0.218254,0.634369 -0.740749,1.817865 -1.161092,2.629992 -0.59031,1.14055 -1.299974,2.010952 -3.118225,3.824548 -1.63559,1.631391 -3.100253,2.849792 -4.79924,3.992348 -1.344919,0.904418 -3.041306,1.970561 -3.769795,2.369207 -0.728488,0.398643 -2.103938,1.127123 -3.056567,1.618838 -0.952638,0.491719 -2.557341,1.246841 -3.566022,1.678052 -1.008668,0.43121 -2.338277,1.014394 -2.95469,1.295964 -0.61641,0.281562 -2.129413,0.874852 -3.362239,1.318402 -1.232816,0.443553 -3.23409,1.161873 -4.447273,1.596273 -1.213193,0.43439 -3.713279,1.20427 -5.555747,1.71082 -1.842475,0.506577 -3.608425,0.921043 -3.924344,0.921043 z m 0.05392,-2.650869 c 0.233486,-8.15e-4 2.120922,-0.493387 4.194299,-1.09418 2.073379,-0.600801 4.640904,-1.415644 5.705614,-1.810779 1.064703,-0.395127 2.761103,-1.016147 3.769778,-1.38005 1.008668,-0.363903 2.384126,-0.911221 3.056574,-1.216268 0.672446,-0.305039 1.910361,-0.854421 2.750922,-1.220843 0.840566,-0.366426 2.124332,-0.989346 2.852811,-1.384268 0.728481,-0.394923 2.058097,-1.129517 2.954684,-1.632429 0.896587,-0.502914 2.501308,-1.51549 3.566012,-2.250169 1.064703,-0.734677 2.806949,-2.215046 3.871661,-3.28971 1.141188,-1.151872 2.27715,-2.53622 2.767333,-3.372465 0.457332,-0.780192 1.007497,-1.877018 1.222637,-2.43739 0.377136,-0.982406 0.393074,-1.940589 0.445898,-26.781602 0.04391,-20.638944 0.0026,-25.795382 -0.203767,-25.926846 C 81.632673,13.340442 65.036968,13.265186 44.895516,13.26347 8.6680178,13.26037 8.2723936,13.26477 8.0598703,13.661765 7.9117387,13.938549 7.8620631,21.894282 7.8998712,39.286072 c 0.05405,24.862224 0.060815,25.239288 0.4731982,26.369423 0.2301035,0.630592 0.734438,1.685113 1.1207459,2.343377 0.3863088,0.658266 1.6651997,2.166155 2.8419847,3.350871 1.56912,1.579694 2.845915,2.619896 4.788637,3.901284 1.456968,0.960996 3.245067,2.065201 3.973552,2.453793 0.728483,0.38859 1.920547,1.027827 2.649034,1.420526 0.728482,0.392699 2.012242,1.013887 2.852803,1.380418 0.840561,0.366531 1.986775,0.872977 2.547149,1.12544 0.560374,0.252452 1.477347,0.648018 2.03772,0.879028 0.560367,0.231008 2.623564,1.011881 4.584864,1.735258 1.961308,0.723384 4.660329,1.646466 5.997827,2.05129 1.337507,0.404832 2.476083,0.780309 2.530168,0.834403 0.05408,0.05408 0.289385,0.09752 0.522875,0.09651 z m 0.262106,-2.663028 c -0.358981,-0.0088 -2.257387,-0.545304 -4.218686,-1.192427 -1.961303,-0.647121 -5.308265,-1.872353 -7.437677,-2.722732 -2.129416,-0.850379 -4.651092,-1.930598 -5.603727,-2.400487 -0.952635,-0.46989 -2.11861,-1.021017 -2.591058,-1.224729 -0.472449,-0.203714 -1.847911,-0.937955 -3.056579,-1.63165 -1.208667,-0.693694 -3.068704,-1.860318 -4.133411,-2.592497 -1.064708,-0.73218 -2.827135,-2.21625 -3.916502,-3.297935 -1.545894,-1.534989 -2.127383,-2.27651 -2.649035,-3.378082 l -0.668364,-1.411386 0,-24.45262 0,-24.45262 34.008294,-0.05154 c 25.253662,-0.03827 34.080471,0.0083 34.28862,0.181107 0.235627,0.195545 0.271565,4.103782 0.225384,24.504163 l -0.05496,24.27151 -0.736201,1.541524 c -0.404909,0.847836 -1.305512,2.203 -2.001341,3.011474 -0.695821,0.808475 -2.134721,2.140465 -3.197545,2.959979 -1.062817,0.819514 -2.879147,2.052883 -4.036256,2.740819 -1.157118,0.687933 -2.733883,1.567669 -3.503918,1.954966 -0.770063,0.387299 -2.317059,1.131866 -3.43781,1.654596 -1.120745,0.52273 -3.229776,1.409894 -4.686749,1.971477 -1.456966,0.561582 -3.703557,1.372034 -4.992408,1.800992 -1.288861,0.428959 -3.168652,1.02091 -4.177328,1.315434 -1.008667,0.29453 -2.044577,0.621233 -2.302022,0.726003 -0.257434,0.10477 -0.761777,0.183366 -1.120737,0.174657 z M 41.984603,62.93163 c 16.550493,-0.07857 17.795829,-0.108936 18.747002,-0.45711 0.560375,-0.205126 1.4857,-0.669026 2.056273,-1.030894 0.570579,-0.361864 1.373213,-1.003695 1.783631,-1.426285 0.41041,-0.42259 0.984159,-1.254698 1.274984,-1.849127 0.312929,-0.639616 0.644804,-1.853473 0.813025,-2.973742 0.180098,-1.199265 0.284781,-3.623727 0.285695,-6.615908 8.09e-4,-2.597621 -0.09774,-5.436023 -0.21895,-6.307555 C 66.605041,41.399478 66.334312,40.234929 66.12464,39.683126 65.914977,39.131322 65.495026,38.32141 65.191428,37.883319 64.887836,37.44523 64.096933,36.67899 63.433882,36.180563 62.770757,35.682084 61.616553,35.06874 60.86865,34.817401 59.527739,34.366776 59.320008,34.358994 45.822109,34.253715 38.29433,34.195005 32.058909,34.070705 31.965619,33.9775 l -0.190788,-11.088931 -7.861616,-0.04377 c 0.04616,0.551707 0.03759,0.644113 0.03759,20.037562 0,10.904641 0.155115,20.543234 0.152829,19.980028 -4.08e-4,-0.119099 8.130494,0.115531 17.880978,0.06925 z m -9.968686,-6.790273 0.08574,-15.176782 25.519563,0.192981 c 0.306636,0.157365 0.691925,0.491256 0.856205,0.74198 0.164282,0.250722 0.403822,1.05957 0.532319,1.797436 0.145114,0.833331 0.206369,3.022553 0.161687,5.778716 -0.06386,3.93951 -0.117535,4.527919 -0.478518,5.246556 -0.225985,0.449894 -0.723369,0.992956 -1.119775,1.222631 z"
     id="path2991"
     inkscape:connector-curvature="0"
     sodipodi:nodetypes="ssssssssssssssscccssssssssssssscsssssssssssscscssssssssssssscssssssssscccssscsssssssssssssssssssssssscccssscccsssscc" />
</svg>
